<svg width="217" height="53" viewBox="0 0 217 53" fill="none" xmlns="http://www.w3.org/2000/svg">
<path d="M9.336 24.784H34.464V32.704H9.336V24.784ZM10.128 52H0.768V1.6H37.56V9.448H10.128V52ZM69.6653 52.72C65.7293 52.72 62.1053 52.072 58.7933 50.776C55.4813 49.48 52.6013 47.68 50.1533 45.376C47.7053 43.024 45.8093 40.288 44.4653 37.168C43.1213 34 42.4493 30.544 42.4493 26.8C42.4493 23.056 43.1213 19.624 44.4653 16.504C45.8093 13.336 47.7053 10.6 50.1533 8.296C52.6013 5.944 55.4813 4.12 58.7933 2.824C62.1053 1.528 65.7053 0.879997 69.5933 0.879997C73.5293 0.879997 77.1293 1.528 80.3933 2.824C83.7053 4.12 86.5853 5.944 89.0333 8.296C91.4813 10.6 93.3773 13.336 94.7213 16.504C96.0653 19.624 96.7373 23.056 96.7373 26.8C96.7373 30.544 96.0653 34 94.7213 37.168C93.3773 40.336 91.4813 43.072 89.0333 45.376C86.5853 47.68 83.7053 49.48 80.3933 50.776C77.1293 52.072 73.5533 52.72 69.6653 52.72ZM69.5933 44.512C72.1373 44.512 74.4893 44.08 76.6493 43.216C78.8093 42.352 80.6813 41.128 82.2653 39.544C83.8493 37.912 85.0733 36.04 85.9373 33.928C86.8493 31.768 87.3053 29.392 87.3053 26.8C87.3053 24.208 86.8493 21.856 85.9373 19.744C85.0733 17.584 83.8493 15.712 82.2653 14.128C80.6813 12.496 78.8093 11.248 76.6493 10.384C74.4893 9.52 72.1373 9.088 69.5933 9.088C67.0493 9.088 64.6973 9.52 62.5373 10.384C60.4253 11.248 58.5533 12.496 56.9213 14.128C55.3373 15.712 54.0893 17.584 53.1773 19.744C52.3133 21.856 51.8813 24.208 51.8813 26.8C51.8813 29.344 52.3133 31.696 53.1773 33.856C54.0893 36.016 55.3373 37.912 56.9213 39.544C58.5053 41.128 60.3773 42.352 62.5373 43.216C64.6973 44.08 67.0493 44.512 69.5933 44.512ZM130.275 52.72C126.339 52.72 122.715 52.072 119.403 50.776C116.091 49.48 113.211 47.68 110.763 45.376C108.315 43.024 106.419 40.288 105.075 37.168C103.731 34 103.059 30.544 103.059 26.8C103.059 23.056 103.731 19.624 105.075 16.504C106.419 13.336 108.315 10.6 110.763 8.296C113.211 5.944 116.091 4.12 119.403 2.824C122.715 1.528 126.315 0.879997 130.203 0.879997C134.139 0.879997 137.739 1.528 141.003 2.824C144.315 4.12 147.195 5.944 149.643 8.296C152.091 10.6 153.987 13.336 155.331 16.504C156.675 19.624 157.347 23.056 157.347 26.8C157.347 30.544 156.675 34 155.331 37.168C153.987 40.336 152.091 43.072 149.643 45.376C147.195 47.68 144.315 49.48 141.003 50.776C137.739 52.072 134.163 52.72 130.275 52.72ZM130.203 44.512C132.747 44.512 135.099 44.08 137.259 43.216C139.419 42.352 141.291 41.128 142.875 39.544C144.459 37.912 145.683 36.04 146.547 33.928C147.459 31.768 147.915 29.392 147.915 26.8C147.915 24.208 147.459 21.856 146.547 19.744C145.683 17.584 144.459 15.712 142.875 14.128C141.291 12.496 139.419 11.248 137.259 10.384C135.099 9.52 132.747 9.088 130.203 9.088C127.659 9.088 125.307 9.52 123.147 10.384C121.035 11.248 119.163 12.496 117.531 14.128C115.947 15.712 114.699 17.584 113.787 19.744C112.923 21.856 112.491 24.208 112.491 26.8C112.491 29.344 112.923 31.696 113.787 33.856C114.699 36.016 115.947 37.912 117.531 39.544C119.115 41.128 120.987 42.352 123.147 43.216C125.307 44.08 127.659 44.512 130.203 44.512ZM167.268 52V1.6H189.3C194.772 1.6 199.572 2.656 203.7 4.768C207.828 6.88 211.044 9.808 213.348 13.552C215.652 17.296 216.804 21.712 216.804 26.8C216.804 31.84 215.652 36.256 213.348 40.048C211.044 43.792 207.828 46.72 203.7 48.832C199.572 50.944 194.772 52 189.3 52H167.268ZM176.628 44.08H188.868C192.66 44.08 195.924 43.36 198.66 41.92C201.444 40.48 203.58 38.464 205.068 35.872C206.604 33.28 207.372 30.256 207.372 26.8C207.372 23.296 206.604 20.272 205.068 17.728C203.58 15.136 201.444 13.12 198.66 11.68C195.924 10.24 192.66 9.52 188.868 9.52H176.628V44.08Z" fill="orange"/>
</svg>
